<?xml version="1.0" encoding="utf-8"?><svg viewBox="0 0 188 32" xmlns="http://www.w3.org/2000/svg" xmlns:xlink="http://www.w3.org/1999/xlink"><style>:root>svg{display:none}:root>svg:target{display:block}</style><svg fill="none" viewBox="0 0 12 8" id="arrow" xmlns="http://www.w3.org/2000/svg"><path d="M11 1.25l-5 5.5-5-5.5" stroke="#ACAFF3" stroke-width="1.5" stroke-linecap="round" stroke-linejoin="round"/></svg><svg fill="none" viewBox="0 0 13 13" id="arrow-second" xmlns="http://www.w3.org/2000/svg"><path d="M9.125 6L6.5 3.25 3.875 6M6.5 9.75v-6" stroke="#86E3CE" stroke-linecap="round" stroke-linejoin="round"/></svg><svg fill="none" viewBox="0 0 24 24" id="calendar" xmlns="http://www.w3.org/2000/svg"><path d="M4.75 8.75a2 2 0 012-2h10.5a2 2 0 012 2v8.5a2 2 0 01-2 2H6.75a2 2 0 01-2-2v-8.5zM8 4.75v3.5M16 4.75v3.5M7.75 10.75h8.5" stroke="#ACAFF3" stroke-width="1.5" stroke-linecap="round" stroke-linejoin="round"/></svg><svg fill="none" viewBox="0 0 24 24" id="chart" xmlns="http://www.w3.org/2000/svg"><path d="M5.75 19.25h.5a1 1 0 001-1v-2.5a1 1 0 00-1-1h-.5a1 1 0 00-1 1v2.5a1 1 0 001 1zM17.75 19.25h.5a1 1 0 001-1v-5.5a1 1 0 00-1-1h-.5a1 1 0 00-1 1v5.5a1 1 0 001 1zM11.75 19.25h.5a1 1 0 001-1V5.75a1 1 0 00-1-1h-.5a1 1 0 00-1 1v12.5a1 1 0 001 1z" stroke="#ACAFF3" stroke-width="1.5" stroke-linecap="round" stroke-linejoin="round"/></svg><svg fill="none" viewBox="0 0 14 14" id="edit" xmlns="http://www.w3.org/2000/svg"><path d="M2.77 11.035l2.48-.583 5.42-5.42a.583.583 0 000-.826L9.6 3.136a.583.583 0 00-.825 0l-5.42 5.42-.584 2.48zM11.23 11.036H8.02" stroke="#ACAFF3" stroke-width="1.5" stroke-linecap="round" stroke-linejoin="round"/></svg><svg viewBox="0 0 26 26" id="fb" xmlns="http://www.w3.org/2000/svg"><path d="M25.5 13C25.5 6.098 19.902.5 13 .5S.5 6.098.5 13 6.098 25.5 13 25.5l.22-.003v-9.73h-2.686v-3.13h2.686v-2.303c0-2.672 1.63-4.125 4.013-4.125 1.141 0 2.122.085 2.408.123v2.791h-1.643c-1.297 0-1.548.616-1.548 1.52v1.994h3.1l-.404 3.13H16.45v9.25C21.675 23.52 25.5 18.706 25.5 13z"/></svg><svg fill="none" viewBox="0 0 24 24" id="football" xmlns="http://www.w3.org/2000/svg"><path d="M12 0C5.373 0 0 5.373 0 12s5.373 12 12 12 12-5.373 12-12C23.993 5.376 18.624.007 12 0zm9.293 5.756l-.831 3.535-4.382 1.46-3.68-2.943V3.471l4.2-1.68a11.268 11.268 0 014.693 3.965zm.067 12.382l-3.967.627-2.16-2.854 1.1-4.4 4.333-1.444 2.482 2.979a11.127 11.127 0 01-1.788 5.092zm-14.736.63l-3.984-.63a11.129 11.129 0 01-1.788-5.094l2.48-2.978 4.333 1.444 1.1 4.402-2.14 2.855zM.804 11.85a11.128 11.128 0 011.312-5.112l.649 2.76-1.961 2.352zM9.512 15.6l-1.06-4.249L12 8.512l3.55 2.84-1.062 4.248H9.512zm11.723-6.102l.649-2.76a11.127 11.127 0 011.313 5.111l-1.962-2.351zM15.51 1.366L12 2.77 8.472 1.372a11.159 11.159 0 017.037-.006zM7.381 1.8L11.6 3.472v4.336l-3.68 2.944-4.382-1.46-.831-3.536A11.27 11.27 0 017.38 1.8zM3.308 19.053l3.252.514 1.966 3.08a11.237 11.237 0 01-5.218-3.593zm6.365 3.902l-2.387-3.737L9.4 16.4h5.2l2.144 2.832-2.08 3.645c-1.636.403-3.342.43-4.99.08v-.002zm6.102-.411l1.705-2.984 3.213-.507a11.244 11.244 0 01-4.918 3.49z" fill="#222"/></svg><svg fill="none" viewBox="0 0 24 24" id="history" xmlns="http://www.w3.org/2000/svg"><path d="M4.75 12.375a7.25 7.25 0 101.202-4m0 0v-4m0 4H10" stroke="#ACAFF3" stroke-width="1.5"/><path d="M12 8.375v4l2 2" stroke="#ACAFF3" stroke-width="1.5"/></svg><svg viewBox="0 0 26 26" id="insta" xmlns="http://www.w3.org/2000/svg"><path d="M15.56 13a2.56 2.56 0 11-5.12 0 2.56 2.56 0 015.12 0z"/><path fill-rule="evenodd" clip-rule="evenodd" d="M18.585 8.775a2.22 2.22 0 00-.536-.824 2.218 2.218 0 00-.824-.536c-.252-.098-.631-.215-1.33-.247-.755-.034-.982-.041-2.895-.041s-2.14.007-2.895.041c-.698.032-1.078.149-1.33.247a2.217 2.217 0 00-.824.536 2.221 2.221 0 00-.536.824c-.098.252-.215.632-.247 1.33-.034.755-.041.982-.041 2.895s.007 2.14.041 2.895c.032.699.149 1.078.247 1.33.115.312.298.593.536.824.231.238.512.421.824.536.252.098.632.215 1.33.247.755.034.982.041 2.895.041s2.14-.007 2.895-.041c.699-.032 1.078-.149 1.33-.247a2.372 2.372 0 001.36-1.36c.098-.252.215-.631.247-1.33.034-.755.041-.982.041-2.895s-.007-2.14-.041-2.895c-.032-.698-.149-1.078-.247-1.33zM13 16.679a3.679 3.679 0 110-7.358 3.679 3.679 0 010 7.358zm3.825-6.644a.86.86 0 110-1.72.86.86 0 010 1.72z"/><path fill-rule="evenodd" clip-rule="evenodd" d="M.5 13C.5 6.098 6.098.5 13 .5S25.5 6.098 25.5 13 19.902 25.5 13 25.5.5 19.902.5 13zm19.3 4.702c.178-.457.3-.979.334-1.743.035-.765.044-1.01.044-2.959 0-1.95-.009-2.194-.043-2.96-.035-.763-.157-1.285-.334-1.742a3.517 3.517 0 00-.828-1.27 3.52 3.52 0 00-1.271-.829c-.457-.177-.979-.299-1.743-.333-.765-.035-1.01-.044-2.959-.044-1.95 0-2.194.009-2.96.044-.763.034-1.285.156-1.742.333-.479.18-.912.463-1.27.828a3.516 3.516 0 00-.829 1.271c-.177.457-.299.979-.333 1.743-.036.765-.044 1.01-.044 2.959 0 1.95.008 2.194.044 2.96.034.763.156 1.285.333 1.742.18.478.463.912.828 1.27.359.366.792.649 1.272.829.456.177.978.299 1.742.333.765.035 1.01.044 2.96.044 1.949 0 2.193-.009 2.958-.044.764-.035 1.286-.156 1.743-.333a3.67 3.67 0 002.099-2.1z"/></svg><svg fill="none" viewBox="0 0 188 32" id="logo" xmlns="http://www.w3.org/2000/svg"><path d="M27.607 0L32 4.393 20.393 16 16 11.607 27.607 0zM4.393 32L0 27.607 11.607 16 16 20.393 4.393 32zM0 4.393L4.393 0 16 11.607 11.607 16 0 4.393zM32 27.607L27.607 32 16 20.393 20.393 16 32 27.607z" fill="#222"/><mask id="ja" maskUnits="userSpaceOnUse" x="51" y="9.75" width="137" height="14" fill="#000"><path fill="#fff" d="M51 9.75h137v14H51z"/><path d="M59.592 14.354a.418.418 0 01-.28-.105.418.418 0 01-.105-.28v-.123a.635.635 0 00-.21-.49.635.635 0 00-.49-.21h-3.41a.636.636 0 00-.49.21.664.664 0 00-.193.49v5.808c0 .198.064.367.192.507a.664.664 0 00.49.193h3.412a.69.69 0 00.7-.7v-.122c0-.105.034-.193.104-.263a.385.385 0 01.28-.122h1.627c.105 0 .192.04.262.122.082.07.123.158.123.263v.122c0 .431-.082.834-.245 1.207a3.164 3.164 0 01-1.644 1.644 2.977 2.977 0 01-1.207.245h-3.412a3.06 3.06 0 01-2.186-.91 3.166 3.166 0 01-.665-.98A2.977 2.977 0 0152 19.655v-5.808c0-.431.082-.834.245-1.207.163-.373.385-.7.665-.98s.606-.5.98-.664a3.061 3.061 0 011.206-.245h3.412c.431 0 .833.082 1.207.245a3.165 3.165 0 011.644 1.644c.163.373.245.776.245 1.207v.123c0 .105-.04.198-.123.28a.356.356 0 01-.262.105h-1.627zM77.125 22.4c.047.094.047.175 0 .245-.046.07-.122.105-.227.105h-1.872a.565.565 0 01-.315-.105.694.694 0 01-.21-.245l-2.011-4.443h-2.38v4.408c0 .105-.04.199-.122.28a.356.356 0 01-.262.105H68.08a.418.418 0 01-.28-.105.418.418 0 01-.105-.28v-11.23c0-.105.035-.192.105-.262a.385.385 0 01.28-.123h6.123c.431 0 .834.082 1.207.245.373.163.7.385.98.665s.501.606.664.98c.164.372.245.775.245 1.206v1.015c0 .35-.058.688-.175 1.014a3.122 3.122 0 01-.454.875 3.002 3.002 0 01-.718.665 2.988 2.988 0 01-.892.42l2.064 4.565zm-2.921-6.84a.69.69 0 00.7-.7v-1.014a.635.635 0 00-.21-.49.635.635 0 00-.49-.21H70.11v2.415h4.094zM89.9 10.768c.432 0 .834.081 1.207.244.374.164.7.385.98.665s.501.607.665.98c.163.373.245.77.245 1.19v5.824c0 .42-.082.817-.245 1.19a3.164 3.164 0 01-1.644 1.644 2.978 2.978 0 01-1.208.245H86.49c-.431 0-.834-.081-1.207-.245a3.164 3.164 0 01-1.644-1.644 2.935 2.935 0 01-.245-1.19v-5.825c0-.42.081-.816.245-1.19.163-.372.384-.699.664-.979s.607-.501.98-.665a2.978 2.978 0 011.207-.244H89.9zm.7 3.078a.635.635 0 00-.21-.49.664.664 0 00-.49-.192H86.49a.724.724 0 00-.507.193.664.664 0 00-.193.49v5.824c0 .199.064.362.193.49.14.128.309.193.507.193H89.9a.663.663 0 00.49-.193.635.635 0 00.21-.49v-5.825zM106.664 14.354a.417.417 0 01-.28-.105.418.418 0 01-.105-.28v-.123a.661.661 0 00-.193-.49.634.634 0 00-.489-.21h-3.429c-.187 0-.35.07-.49.21a.664.664 0 00-.192.49v1.015c0 .198.064.367.192.507.14.128.303.193.49.193h3.429c.419 0 .816.081 1.189.245.373.163.7.384.98.664s.501.607.665.98c.163.373.244.77.244 1.19v1.014c0 .431-.081.834-.244 1.207-.164.373-.385.7-.665.98a3.17 3.17 0 01-.98.664c-.373.164-.77.245-1.189.245h-3.429c-.42 0-.817-.081-1.19-.245a3.171 3.171 0 01-.98-.665 3.166 3.166 0 01-.664-.98 2.977 2.977 0 01-.245-1.206v-.122c0-.105.035-.193.105-.263a.385.385 0 01.28-.122h1.627a.33.33 0 01.262.122.33.33 0 01.123.263v.122c0 .198.064.367.192.507.14.128.303.193.49.193h3.429a.662.662 0 00.489-.193.721.721 0 00.193-.507v-1.015a.661.661 0 00-.682-.682h-3.429c-.42 0-.817-.082-1.19-.245a3.171 3.171 0 01-.98-.665 3.059 3.059 0 01-.91-2.187v-1.014c.001-.431.083-.834.246-1.207.163-.373.385-.7.665-.98s.606-.5.979-.664c.373-.163.77-.245 1.19-.245h3.429c.419 0 .816.082 1.189.245.373.163.7.385.98.665s.501.606.665.98c.163.372.244.775.244 1.206v.123a.418.418 0 01-.105.28.355.355 0 01-.262.105h-1.644zM122.36 14.354a.42.42 0 01-.28-.105.418.418 0 01-.105-.28v-.123a.664.664 0 00-.192-.49.637.637 0 00-.49-.21h-3.429c-.186 0-.35.07-.49.21a.664.664 0 00-.192.49v1.015c0 .198.064.367.192.507.14.128.304.193.49.193h3.429c.42 0 .816.081 1.189.245a3.161 3.161 0 011.645 1.644c.163.373.245.77.245 1.19v1.014c0 .431-.082.834-.245 1.207a3.16 3.16 0 01-1.645 1.644 2.931 2.931 0 01-1.189.245h-3.429c-.42 0-.816-.081-1.189-.245a3.158 3.158 0 01-1.645-1.644 2.982 2.982 0 01-.245-1.207v-.122c0-.105.035-.193.105-.263a.386.386 0 01.28-.122h1.627a.33.33 0 01.262.122.33.33 0 01.123.263v.122c0 .198.064.367.192.507.14.128.304.193.49.193h3.429a.665.665 0 00.49-.193.725.725 0 00.192-.507v-1.015a.664.664 0 00-.192-.49.666.666 0 00-.49-.192h-3.429c-.42 0-.816-.082-1.189-.245a3.158 3.158 0 01-1.645-1.644 3.064 3.064 0 01-.245-1.207v-1.015c0-.431.082-.834.245-1.207a3.16 3.16 0 011.645-1.644 2.933 2.933 0 011.189-.245h3.429c.42 0 .816.082 1.189.245a3.161 3.161 0 011.645 1.644c.163.373.245.776.245 1.207v.123a.418.418 0 01-.105.28.358.358 0 01-.263.105h-1.644zM136.989 10.75c.42 0 .817.082 1.19.245a3.156 3.156 0 011.644 1.644c.163.373.245.776.245 1.207v1.015c0 .361-.058.7-.175 1.014a3.508 3.508 0 01-.472.875c.198.268.356.56.472.875.117.315.175.653.175 1.014v1.015c0 .431-.082.834-.245 1.207a3.16 3.16 0 01-1.644 1.644c-.373.164-.77.245-1.19.245h-6.14a.355.355 0 01-.262-.105.418.418 0 01-.105-.28v-11.23c0-.105.035-.192.105-.262a.33.33 0 01.262-.123h6.14zm-4.111 4.793h4.111a.644.644 0 00.473-.192.638.638 0 00.209-.49v-1.015a.638.638 0 00-.209-.49.618.618 0 00-.473-.21h-4.111v2.397zm4.793 3.096a.638.638 0 00-.209-.49.644.644 0 00-.473-.192h-4.111v2.397h4.111a.644.644 0 00.473-.193.694.694 0 00.209-.507v-1.015zM152.598 10.75c.105 0 .205.035.298.105.105.07.175.152.21.245l2.519 6.262c.035.094.064.216.087.368.035.14.053.262.053.367v4.268a.385.385 0 01-.123.28.355.355 0 01-.262.105h-1.644a.417.417 0 01-.28-.105.418.418 0 01-.105-.28v-2.011h-4.794v2.011c0 .105-.04.199-.122.28a.355.355 0 01-.262.105h-1.627a.417.417 0 01-.28-.105.418.418 0 01-.105-.28v-4.268c0-.105.012-.227.035-.367.035-.152.07-.274.105-.368l2.501-6.262a.7.7 0 01.21-.245.565.565 0 01.315-.105h3.271zm-3.953 7.207h4.618l-1.924-4.81h-.77l-1.924 4.81zM170.936 22.75h-8.187a.42.42 0 01-.28-.105.417.417 0 01-.104-.28v-11.23c0-.105.034-.192.104-.262a.386.386 0 01.28-.123h1.627c.105 0 .193.04.263.123.081.07.122.157.122.262v9.219h6.175c.105 0 .193.04.263.122.07.07.105.158.105.262v1.627a.418.418 0 01-.105.28.358.358 0 01-.263.105zM186.633 22.75h-8.187a.417.417 0 01-.28-.105.418.418 0 01-.105-.28v-11.23c0-.105.035-.192.105-.262a.384.384 0 01.28-.123h1.627a.33.33 0 01.262.123.33.33 0 01.122.262v9.219h6.176a.33.33 0 01.262.122c.07.07.105.158.105.262v1.627a.418.418 0 01-.105.28.355.355 0 01-.262.105z"/></mask><path d="M59.592 14.354a.418.418 0 01-.28-.105.418.418 0 01-.105-.28v-.123a.635.635 0 00-.21-.49.635.635 0 00-.49-.21h-3.41a.636.636 0 00-.49.21.664.664 0 00-.193.49v5.808c0 .198.064.367.192.507a.664.664 0 00.49.193h3.412a.69.69 0 00.7-.7v-.122c0-.105.034-.193.104-.263a.385.385 0 01.28-.122h1.627c.105 0 .192.04.262.122.082.07.123.158.123.263v.122c0 .431-.082.834-.245 1.207a3.164 3.164 0 01-1.644 1.644 2.977 2.977 0 01-1.207.245h-3.412a3.06 3.06 0 01-2.186-.91 3.166 3.166 0 01-.665-.98A2.977 2.977 0 0152 19.655v-5.808c0-.431.082-.834.245-1.207.163-.373.385-.7.665-.98s.606-.5.98-.664a3.061 3.061 0 011.206-.245h3.412c.431 0 .833.082 1.207.245a3.165 3.165 0 011.644 1.644c.163.373.245.776.245 1.207v.123c0 .105-.04.198-.123.28a.356.356 0 01-.262.105h-1.627zM77.125 22.4c.047.094.047.175 0 .245-.046.07-.122.105-.227.105h-1.872a.565.565 0 01-.315-.105.694.694 0 01-.21-.245l-2.011-4.443h-2.38v4.408c0 .105-.04.199-.122.28a.356.356 0 01-.262.105H68.08a.418.418 0 01-.28-.105.418.418 0 01-.105-.28v-11.23c0-.105.035-.192.105-.262a.385.385 0 01.28-.123h6.123c.431 0 .834.082 1.207.245.373.163.7.385.98.665s.501.606.664.98c.164.372.245.775.245 1.206v1.015c0 .35-.058.688-.175 1.014a3.122 3.122 0 01-.454.875 3.002 3.002 0 01-.718.665 2.988 2.988 0 01-.892.42l2.064 4.565zm-2.921-6.84a.69.69 0 00.7-.7v-1.014a.635.635 0 00-.21-.49.635.635 0 00-.49-.21H70.11v2.415h4.094zM89.9 10.768c.432 0 .834.081 1.207.244.374.164.7.385.98.665s.501.607.665.98c.163.373.245.77.245 1.19v5.824c0 .42-.082.817-.245 1.19a3.164 3.164 0 01-1.644 1.644 2.978 2.978 0 01-1.208.245H86.49c-.431 0-.834-.081-1.207-.245a3.164 3.164 0 01-1.644-1.644 2.935 2.935 0 01-.245-1.19v-5.825c0-.42.081-.816.245-1.19.163-.372.384-.699.664-.979s.607-.501.98-.665a2.978 2.978 0 011.207-.244H89.9zm.7 3.078a.635.635 0 00-.21-.49.664.664 0 00-.49-.192H86.49a.724.724 0 00-.507.193.664.664 0 00-.193.49v5.824c0 .199.064.362.193.49.14.128.309.193.507.193H89.9a.663.663 0 00.49-.193.635.635 0 00.21-.49v-5.825zM106.664 14.354a.417.417 0 01-.28-.105.418.418 0 01-.105-.28v-.123a.661.661 0 00-.193-.49.634.634 0 00-.489-.21h-3.429c-.187 0-.35.07-.49.21a.664.664 0 00-.192.49v1.015c0 .198.064.367.192.507.14.128.303.193.49.193h3.429c.419 0 .816.081 1.189.245.373.163.7.384.98.664s.501.607.665.98c.163.373.244.77.244 1.19v1.014c0 .431-.081.834-.244 1.207-.164.373-.385.7-.665.98a3.17 3.17 0 01-.98.664c-.373.164-.77.245-1.189.245h-3.429c-.42 0-.817-.081-1.19-.245a3.171 3.171 0 01-.98-.665 3.166 3.166 0 01-.664-.98 2.977 2.977 0 01-.245-1.206v-.122c0-.105.035-.193.105-.263a.385.385 0 01.28-.122h1.627a.33.33 0 01.262.122.33.33 0 01.123.263v.122c0 .198.064.367.192.507.14.128.303.193.49.193h3.429a.662.662 0 00.489-.193.721.721 0 00.193-.507v-1.015a.661.661 0 00-.682-.682h-3.429c-.42 0-.817-.082-1.19-.245a3.171 3.171 0 01-.98-.665 3.059 3.059 0 01-.91-2.187v-1.014c.001-.431.083-.834.246-1.207.163-.373.385-.7.665-.98s.606-.5.979-.664c.373-.163.77-.245 1.19-.245h3.429c.419 0 .816.082 1.189.245.373.163.7.385.98.665s.501.606.665.98c.163.372.244.775.244 1.206v.123a.418.418 0 01-.105.28.355.355 0 01-.262.105h-1.644zM122.36 14.354a.42.42 0 01-.28-.105.418.418 0 01-.105-.28v-.123a.664.664 0 00-.192-.49.637.637 0 00-.49-.21h-3.429c-.186 0-.35.07-.49.21a.664.664 0 00-.192.49v1.015c0 .198.064.367.192.507.14.128.304.193.49.193h3.429c.42 0 .816.081 1.189.245a3.161 3.161 0 011.645 1.644c.163.373.245.77.245 1.19v1.014c0 .431-.082.834-.245 1.207a3.16 3.16 0 01-1.645 1.644 2.931 2.931 0 01-1.189.245h-3.429c-.42 0-.816-.081-1.189-.245a3.158 3.158 0 01-1.645-1.644 2.982 2.982 0 01-.245-1.207v-.122c0-.105.035-.193.105-.263a.386.386 0 01.28-.122h1.627a.33.33 0 01.262.122.33.33 0 01.123.263v.122c0 .198.064.367.192.507.14.128.304.193.49.193h3.429a.665.665 0 00.49-.193.725.725 0 00.192-.507v-1.015a.664.664 0 00-.192-.49.666.666 0 00-.49-.192h-3.429c-.42 0-.816-.082-1.189-.245a3.158 3.158 0 01-1.645-1.644 3.064 3.064 0 01-.245-1.207v-1.015c0-.431.082-.834.245-1.207a3.16 3.16 0 011.645-1.644 2.933 2.933 0 011.189-.245h3.429c.42 0 .816.082 1.189.245a3.161 3.161 0 011.645 1.644c.163.373.245.776.245 1.207v.123a.418.418 0 01-.105.28.358.358 0 01-.263.105h-1.644zM136.989 10.75c.42 0 .817.082 1.19.245a3.156 3.156 0 011.644 1.644c.163.373.245.776.245 1.207v1.015c0 .361-.058.7-.175 1.014a3.508 3.508 0 01-.472.875c.198.268.356.56.472.875.117.315.175.653.175 1.014v1.015c0 .431-.082.834-.245 1.207a3.16 3.16 0 01-1.644 1.644c-.373.164-.77.245-1.19.245h-6.14a.355.355 0 01-.262-.105.418.418 0 01-.105-.28v-11.23c0-.105.035-.192.105-.262a.33.33 0 01.262-.123h6.14zm-4.111 4.793h4.111a.644.644 0 00.473-.192.638.638 0 00.209-.49v-1.015a.638.638 0 00-.209-.49.618.618 0 00-.473-.21h-4.111v2.397zm4.793 3.096a.638.638 0 00-.209-.49.644.644 0 00-.473-.192h-4.111v2.397h4.111a.644.644 0 00.473-.193.694.694 0 00.209-.507v-1.015zM152.598 10.75c.105 0 .205.035.298.105.105.07.175.152.21.245l2.519 6.262c.035.094.064.216.087.368.035.14.053.262.053.367v4.268a.385.385 0 01-.123.28.355.355 0 01-.262.105h-1.644a.417.417 0 01-.28-.105.418.418 0 01-.105-.28v-2.011h-4.794v2.011c0 .105-.04.199-.122.28a.355.355 0 01-.262.105h-1.627a.417.417 0 01-.28-.105.418.418 0 01-.105-.28v-4.268c0-.105.012-.227.035-.367.035-.152.07-.274.105-.368l2.501-6.262a.7.7 0 01.21-.245.565.565 0 01.315-.105h3.271zm-3.953 7.207h4.618l-1.924-4.81h-.77l-1.924 4.81zM170.936 22.75h-8.187a.42.42 0 01-.28-.105.417.417 0 01-.104-.28v-11.23c0-.105.034-.192.104-.262a.386.386 0 01.28-.123h1.627c.105 0 .193.04.263.123.081.07.122.157.122.262v9.219h6.175c.105 0 .193.04.263.122.07.07.105.158.105.262v1.627a.418.418 0 01-.105.28.358.358 0 01-.263.105zM186.633 22.75h-8.187a.417.417 0 01-.28-.105.418.418 0 01-.105-.28v-11.23c0-.105.035-.192.105-.262a.384.384 0 01.28-.123h1.627a.33.33 0 01.262.123.33.33 0 01.122.262v9.219h6.176a.33.33 0 01.262.122c.07.07.105.158.105.262v1.627a.418.418 0 01-.105.28.355.355 0 01-.262.105z" fill="#222"/><path d="M59.592 14.354a.418.418 0 01-.28-.105.418.418 0 01-.105-.28v-.123a.635.635 0 00-.21-.49.635.635 0 00-.49-.21h-3.41a.636.636 0 00-.49.21.664.664 0 00-.193.49v5.808c0 .198.064.367.192.507a.664.664 0 00.49.193h3.412a.69.69 0 00.7-.7v-.122c0-.105.034-.193.104-.263a.385.385 0 01.28-.122h1.627c.105 0 .192.04.262.122.082.07.123.158.123.263v.122c0 .431-.082.834-.245 1.207a3.164 3.164 0 01-1.644 1.644 2.977 2.977 0 01-1.207.245h-3.412a3.06 3.06 0 01-2.186-.91 3.166 3.166 0 01-.665-.98A2.977 2.977 0 0152 19.655v-5.808c0-.431.082-.834.245-1.207.163-.373.385-.7.665-.98s.606-.5.98-.664a3.061 3.061 0 011.206-.245h3.412c.431 0 .833.082 1.207.245a3.165 3.165 0 011.644 1.644c.163.373.245.776.245 1.207v.123c0 .105-.04.198-.123.28a.356.356 0 01-.262.105h-1.627zM77.125 22.4c.047.094.047.175 0 .245-.046.07-.122.105-.227.105h-1.872a.565.565 0 01-.315-.105.694.694 0 01-.21-.245l-2.011-4.443h-2.38v4.408c0 .105-.04.199-.122.28a.356.356 0 01-.262.105H68.08a.418.418 0 01-.28-.105.418.418 0 01-.105-.28v-11.23c0-.105.035-.192.105-.262a.385.385 0 01.28-.123h6.123c.431 0 .834.082 1.207.245.373.163.7.385.98.665s.501.606.664.98c.164.372.245.775.245 1.206v1.015c0 .35-.058.688-.175 1.014a3.122 3.122 0 01-.454.875 3.002 3.002 0 01-.718.665 2.988 2.988 0 01-.892.42l2.064 4.565zm-2.921-6.84a.69.69 0 00.7-.7v-1.014a.635.635 0 00-.21-.49.635.635 0 00-.49-.21H70.11v2.415h4.094zM89.9 10.768c.432 0 .834.081 1.207.244.374.164.7.385.98.665s.501.607.665.98c.163.373.245.77.245 1.19v5.824c0 .42-.082.817-.245 1.19a3.164 3.164 0 01-1.644 1.644 2.978 2.978 0 01-1.208.245H86.49c-.431 0-.834-.081-1.207-.245a3.164 3.164 0 01-1.644-1.644 2.935 2.935 0 01-.245-1.19v-5.825c0-.42.081-.816.245-1.19.163-.372.384-.699.664-.979s.607-.501.98-.665a2.978 2.978 0 011.207-.244H89.9zm.7 3.078a.635.635 0 00-.21-.49.664.664 0 00-.49-.192H86.49a.724.724 0 00-.507.193.664.664 0 00-.193.49v5.824c0 .199.064.362.193.49.14.128.309.193.507.193H89.9a.663.663 0 00.49-.193.635.635 0 00.21-.49v-5.825zM106.664 14.354a.417.417 0 01-.28-.105.418.418 0 01-.105-.28v-.123a.661.661 0 00-.193-.49.634.634 0 00-.489-.21h-3.429c-.187 0-.35.07-.49.21a.664.664 0 00-.192.49v1.015c0 .198.064.367.192.507.14.128.303.193.49.193h3.429c.419 0 .816.081 1.189.245.373.163.7.384.98.664s.501.607.665.98c.163.373.244.77.244 1.19v1.014c0 .431-.081.834-.244 1.207-.164.373-.385.7-.665.98a3.17 3.17 0 01-.98.664c-.373.164-.77.245-1.189.245h-3.429c-.42 0-.817-.081-1.19-.245a3.171 3.171 0 01-.98-.665 3.166 3.166 0 01-.664-.98 2.977 2.977 0 01-.245-1.206v-.122c0-.105.035-.193.105-.263a.385.385 0 01.28-.122h1.627a.33.33 0 01.262.122.33.33 0 01.123.263v.122c0 .198.064.367.192.507.14.128.303.193.49.193h3.429a.662.662 0 00.489-.193.721.721 0 00.193-.507v-1.015a.661.661 0 00-.682-.682h-3.429c-.42 0-.817-.082-1.19-.245a3.171 3.171 0 01-.98-.665 3.059 3.059 0 01-.91-2.187v-1.014c.001-.431.083-.834.246-1.207.163-.373.385-.7.665-.98s.606-.5.979-.664c.373-.163.77-.245 1.19-.245h3.429c.419 0 .816.082 1.189.245.373.163.7.385.98.665s.501.606.665.98c.163.372.244.775.244 1.206v.123a.418.418 0 01-.105.28.355.355 0 01-.262.105h-1.644zM122.36 14.354a.42.42 0 01-.28-.105.418.418 0 01-.105-.28v-.123a.664.664 0 00-.192-.49.637.637 0 00-.49-.21h-3.429c-.186 0-.35.07-.49.21a.664.664 0 00-.192.49v1.015c0 .198.064.367.192.507.14.128.304.193.49.193h3.429c.42 0 .816.081 1.189.245a3.161 3.161 0 011.645 1.644c.163.373.245.77.245 1.19v1.014c0 .431-.082.834-.245 1.207a3.16 3.16 0 01-1.645 1.644 2.931 2.931 0 01-1.189.245h-3.429c-.42 0-.816-.081-1.189-.245a3.158 3.158 0 01-1.645-1.644 2.982 2.982 0 01-.245-1.207v-.122c0-.105.035-.193.105-.263a.386.386 0 01.28-.122h1.627a.33.33 0 01.262.122.33.33 0 01.123.263v.122c0 .198.064.367.192.507.14.128.304.193.49.193h3.429a.665.665 0 00.49-.193.725.725 0 00.192-.507v-1.015a.664.664 0 00-.192-.49.666.666 0 00-.49-.192h-3.429c-.42 0-.816-.082-1.189-.245a3.158 3.158 0 01-1.645-1.644 3.064 3.064 0 01-.245-1.207v-1.015c0-.431.082-.834.245-1.207a3.16 3.16 0 011.645-1.644 2.933 2.933 0 011.189-.245h3.429c.42 0 .816.082 1.189.245a3.161 3.161 0 011.645 1.644c.163.373.245.776.245 1.207v.123a.418.418 0 01-.105.28.358.358 0 01-.263.105h-1.644zM136.989 10.75c.42 0 .817.082 1.19.245a3.156 3.156 0 011.644 1.644c.163.373.245.776.245 1.207v1.015c0 .361-.058.7-.175 1.014a3.508 3.508 0 01-.472.875c.198.268.356.56.472.875.117.315.175.653.175 1.014v1.015c0 .431-.082.834-.245 1.207a3.16 3.16 0 01-1.644 1.644c-.373.164-.77.245-1.19.245h-6.14a.355.355 0 01-.262-.105.418.418 0 01-.105-.28v-11.23c0-.105.035-.192.105-.262a.33.33 0 01.262-.123h6.14zm-4.111 4.793h4.111a.644.644 0 00.473-.192.638.638 0 00.209-.49v-1.015a.638.638 0 00-.209-.49.618.618 0 00-.473-.21h-4.111v2.397zm4.793 3.096a.638.638 0 00-.209-.49.644.644 0 00-.473-.192h-4.111v2.397h4.111a.644.644 0 00.473-.193.694.694 0 00.209-.507v-1.015zM152.598 10.75c.105 0 .205.035.298.105.105.07.175.152.21.245l2.519 6.262c.035.094.064.216.087.368.035.14.053.262.053.367v4.268a.385.385 0 01-.123.28.355.355 0 01-.262.105h-1.644a.417.417 0 01-.28-.105.418.418 0 01-.105-.28v-2.011h-4.794v2.011c0 .105-.04.199-.122.28a.355.355 0 01-.262.105h-1.627a.417.417 0 01-.28-.105.418.418 0 01-.105-.28v-4.268c0-.105.012-.227.035-.367.035-.152.07-.274.105-.368l2.501-6.262a.7.7 0 01.21-.245.565.565 0 01.315-.105h3.271zm-3.953 7.207h4.618l-1.924-4.81h-.77l-1.924 4.81zM170.936 22.75h-8.187a.42.42 0 01-.28-.105.417.417 0 01-.104-.28v-11.23c0-.105.034-.192.104-.262a.386.386 0 01.28-.123h1.627c.105 0 .193.04.263.123.081.07.122.157.122.262v9.219h6.175c.105 0 .193.04.263.122.07.07.105.158.105.262v1.627a.418.418 0 01-.105.28.358.358 0 01-.263.105zM186.633 22.75h-8.187a.417.417 0 01-.28-.105.418.418 0 01-.105-.28v-11.23c0-.105.035-.192.105-.262a.384.384 0 01.28-.123h1.627a.33.33 0 01.262.123.33.33 0 01.122.262v9.219h6.176a.33.33 0 01.262.122c.07.07.105.158.105.262v1.627a.418.418 0 01-.105.28.355.355 0 01-.262.105z" stroke="#000" stroke-width="2" mask="url(#ja)"/></svg><svg fill="none" viewBox="0 0 187 32" id="logoWhite" xmlns="http://www.w3.org/2000/svg"><path d="M27.607 0L32 4.393 20.393 16 16 11.607 27.607 0zM4.393 32L0 27.607 11.607 16 16 20.393 4.393 32zM0 4.393L4.393 0 16 11.607 11.607 16 0 4.393zM32 27.607L27.607 32 16 20.393 20.393 16 32 27.607zM59.592 14.354a.418.418 0 01-.28-.105.418.418 0 01-.105-.28v-.123a.635.635 0 00-.21-.49.635.635 0 00-.49-.21h-3.41a.636.636 0 00-.49.21.664.664 0 00-.193.49v5.808c0 .198.064.367.192.507a.664.664 0 00.49.193h3.412a.69.69 0 00.7-.7v-.122c0-.105.034-.193.104-.263a.385.385 0 01.28-.122h1.627c.105 0 .192.04.262.122.082.07.123.158.123.263v.122c0 .431-.082.834-.245 1.207a3.164 3.164 0 01-1.644 1.644 2.977 2.977 0 01-1.207.245h-3.412a3.06 3.06 0 01-2.186-.91 3.166 3.166 0 01-.665-.98A2.977 2.977 0 0152 19.655v-5.808c0-.431.082-.834.245-1.207.163-.373.385-.7.665-.98s.606-.5.98-.664a3.061 3.061 0 011.206-.245h3.412c.431 0 .833.082 1.207.245a3.165 3.165 0 011.644 1.644c.163.373.245.776.245 1.207v.123c0 .105-.04.198-.123.28a.356.356 0 01-.262.105h-1.627zM77.125 22.4c.047.094.047.175 0 .245-.046.07-.122.105-.227.105h-1.872a.565.565 0 01-.315-.105.694.694 0 01-.21-.245l-2.011-4.443h-2.38v4.408c0 .105-.04.199-.122.28a.356.356 0 01-.262.105H68.08a.418.418 0 01-.28-.105.418.418 0 01-.105-.28v-11.23c0-.105.035-.192.105-.262a.385.385 0 01.28-.123h6.123c.431 0 .834.082 1.207.245.373.163.7.385.98.665s.501.606.664.98c.164.372.245.775.245 1.206v1.015c0 .35-.058.688-.175 1.014a3.122 3.122 0 01-.454.875 3.002 3.002 0 01-.718.665 2.988 2.988 0 01-.892.42l2.064 4.565zm-2.921-6.84a.69.69 0 00.7-.7v-1.014a.635.635 0 00-.21-.49.635.635 0 00-.49-.21H70.11v2.415h4.094zM89.9 10.768c.432 0 .834.081 1.207.244.374.164.7.385.98.665s.501.607.665.98c.163.373.245.77.245 1.19v5.824c0 .42-.082.817-.245 1.19a3.164 3.164 0 01-1.644 1.644 2.978 2.978 0 01-1.208.245H86.49c-.431 0-.834-.081-1.207-.245a3.164 3.164 0 01-1.644-1.644 2.935 2.935 0 01-.245-1.19v-5.825c0-.42.081-.816.245-1.19.163-.372.384-.699.664-.979s.607-.501.98-.665a2.978 2.978 0 011.207-.244H89.9zm.7 3.078a.635.635 0 00-.21-.49.664.664 0 00-.49-.192H86.49a.724.724 0 00-.507.193.664.664 0 00-.193.49v5.824c0 .199.064.362.193.49.14.128.309.193.507.193H89.9a.663.663 0 00.49-.193.635.635 0 00.21-.49v-5.825zM106.664 14.354a.417.417 0 01-.28-.105.418.418 0 01-.105-.28v-.123a.661.661 0 00-.193-.49.634.634 0 00-.489-.21h-3.429c-.187 0-.35.07-.49.21a.664.664 0 00-.192.49v1.015c0 .198.064.367.192.507.14.128.303.193.49.193h3.429c.419 0 .816.081 1.189.245.373.163.7.384.98.664s.501.607.665.98c.163.373.244.77.244 1.19v1.014c0 .431-.081.834-.244 1.207-.164.373-.385.7-.665.98a3.17 3.17 0 01-.98.664c-.373.164-.77.245-1.189.245h-3.429c-.42 0-.817-.081-1.19-.245a3.171 3.171 0 01-.98-.665 3.166 3.166 0 01-.664-.98 2.977 2.977 0 01-.245-1.206v-.122c0-.105.035-.193.105-.263a.385.385 0 01.28-.122h1.627a.33.33 0 01.262.122.33.33 0 01.123.263v.122c0 .198.064.367.192.507.14.128.303.193.49.193h3.429a.662.662 0 00.489-.193.721.721 0 00.193-.507v-1.015a.661.661 0 00-.682-.682h-3.429c-.42 0-.817-.082-1.19-.245a3.171 3.171 0 01-.98-.665 3.059 3.059 0 01-.91-2.187v-1.014c.001-.431.083-.834.246-1.207.163-.373.385-.7.665-.98s.606-.5.979-.664c.373-.163.77-.245 1.19-.245h3.429c.419 0 .816.082 1.189.245.373.163.7.385.98.665s.501.606.665.98c.163.372.244.775.244 1.206v.123a.418.418 0 01-.105.28.355.355 0 01-.262.105h-1.644zM122.36 14.354a.42.42 0 01-.28-.105.418.418 0 01-.105-.28v-.123a.664.664 0 00-.192-.49.637.637 0 00-.49-.21h-3.429c-.186 0-.35.07-.49.21a.664.664 0 00-.192.49v1.015c0 .198.064.367.192.507.14.128.304.193.49.193h3.429c.42 0 .816.081 1.189.245a3.161 3.161 0 011.645 1.644c.163.373.245.77.245 1.19v1.014c0 .431-.082.834-.245 1.207a3.16 3.16 0 01-1.645 1.644 2.931 2.931 0 01-1.189.245h-3.429c-.42 0-.816-.081-1.189-.245a3.158 3.158 0 01-1.645-1.644 2.982 2.982 0 01-.245-1.207v-.122c0-.105.035-.193.105-.263a.386.386 0 01.28-.122h1.627a.33.33 0 01.262.122.33.33 0 01.123.263v.122c0 .198.064.367.192.507.14.128.304.193.49.193h3.429a.665.665 0 00.49-.193.725.725 0 00.192-.507v-1.015a.664.664 0 00-.192-.49.666.666 0 00-.49-.192h-3.429c-.42 0-.816-.082-1.189-.245a3.158 3.158 0 01-1.645-1.644 3.064 3.064 0 01-.245-1.207v-1.015c0-.431.082-.834.245-1.207a3.16 3.16 0 011.645-1.644 2.933 2.933 0 011.189-.245h3.429c.42 0 .816.082 1.189.245a3.161 3.161 0 011.645 1.644c.163.373.245.776.245 1.207v.123a.418.418 0 01-.105.28.358.358 0 01-.263.105h-1.644zM136.989 10.75c.42 0 .817.082 1.19.245a3.156 3.156 0 011.644 1.644c.163.373.245.776.245 1.207v1.015c0 .361-.058.7-.175 1.014a3.508 3.508 0 01-.472.875c.198.268.356.56.472.875.117.315.175.653.175 1.014v1.015c0 .431-.082.834-.245 1.207a3.16 3.16 0 01-1.644 1.644c-.373.164-.77.245-1.19.245h-6.14a.355.355 0 01-.262-.105.418.418 0 01-.105-.28v-11.23c0-.105.035-.192.105-.262a.33.33 0 01.262-.123h6.14zm-4.111 4.793h4.111a.644.644 0 00.473-.192.638.638 0 00.209-.49v-1.015a.638.638 0 00-.209-.49.618.618 0 00-.473-.21h-4.111v2.397zm4.793 3.096a.638.638 0 00-.209-.49.644.644 0 00-.473-.192h-4.111v2.397h4.111a.644.644 0 00.473-.193.694.694 0 00.209-.507v-1.015zM152.598 10.75c.105 0 .205.035.298.105.105.07.175.152.21.245l2.519 6.262c.035.094.064.216.087.368.035.14.053.262.053.367v4.268a.385.385 0 01-.123.28.355.355 0 01-.262.105h-1.644a.417.417 0 01-.28-.105.418.418 0 01-.105-.28v-2.011h-4.794v2.011c0 .105-.04.199-.122.28a.355.355 0 01-.262.105h-1.627a.417.417 0 01-.28-.105.418.418 0 01-.105-.28v-4.268c0-.105.012-.227.035-.367.035-.152.07-.274.105-.368l2.501-6.262a.7.7 0 01.21-.245.565.565 0 01.315-.105h3.271zm-3.953 7.207h4.618l-1.924-4.81h-.77l-1.924 4.81zM170.936 22.75h-8.187a.42.42 0 01-.28-.105.417.417 0 01-.104-.28v-11.23c0-.105.034-.192.104-.262a.386.386 0 01.28-.123h1.627c.105 0 .193.04.263.123.081.07.122.157.122.262v9.219h6.175c.105 0 .193.04.263.122.07.07.105.158.105.262v1.627a.418.418 0 01-.105.28.358.358 0 01-.263.105zM186.633 22.75h-8.187a.417.417 0 01-.28-.105.418.418 0 01-.105-.28v-11.23c0-.105.035-.192.105-.262a.384.384 0 01.28-.123h1.627a.33.33 0 01.262.123.33.33 0 01.122.262v9.219h6.176a.33.33 0 01.262.122c.07.07.105.158.105.262v1.627a.418.418 0 01-.105.28.355.355 0 01-.262.105z" fill="#fff"/></svg><svg fill="none" viewBox="0 0 24 24" id="logout" xmlns="http://www.w3.org/2000/svg"><path d="M15.75 8.75l3.5 3.25-3.5 3.25M19 12h-8.25M15.25 4.75h-8.5a2 2 0 00-2 2v10.5a2 2 0 002 2h8.5" stroke="#ACAFF3" stroke-width="1.5" stroke-linecap="round" stroke-linejoin="round"/></svg><svg fill="none" viewBox="0 0 24 24" id="mail" xmlns="http://www.w3.org/2000/svg"><path d="M4.75 7.75a2 2 0 012-2h10.5a2 2 0 012 2v8.5a2 2 0 01-2 2H6.75a2 2 0 01-2-2v-8.5z" stroke="#fff" stroke-width="1.5" stroke-linecap="round" stroke-linejoin="round"/><path d="M5.5 6.5l6.5 5.75 6.5-5.75" stroke="#fff" stroke-width="1.5" stroke-linecap="round" stroke-linejoin="round"/></svg><svg fill="none" viewBox="0 0 24 24" id="phone" xmlns="http://www.w3.org/2000/svg"><path d="M8.893 4.75H6.068c-.728 0-1.318.59-1.318 1.318 0 7.28 5.902 13.182 13.182 13.182.728 0 1.318-.59 1.318-1.318v-2.825l-3.107-2.071-1.611 1.61c-.28.28-.698.368-1.05.186a11.093 11.093 0 01-2.518-1.796 8.726 8.726 0 01-1.836-2.542c-.16-.34-.067-.733.199-1l1.637-1.637L8.893 4.75z" stroke="#FAF9F9" stroke-width="1.5" stroke-linecap="round" stroke-linejoin="round"/></svg><svg fill="none" viewBox="0 0 22 28" id="portf" xmlns="http://www.w3.org/2000/svg"><path d="M11.312 0C10.147 0 9.03.461 8.205 1.282a4.365 4.365 0 00-1.288 3.093v.077a10.535 10.535 0 00-4.482 3.876A10.467 10.467 0 00.765 14v8.75c0 1.392.555 2.728 1.544 3.712A5.286 5.286 0 006.04 28h5.725a9.63 9.63 0 01-1.155-1.75h-4.57a3.524 3.524 0 01-2.487-1.025 3.492 3.492 0 01-1.03-2.475v-3.5h3.516v2.625a.873.873 0 00.88.875.881.881 0 00.878-.875V19.25h2.122c.174-.61.404-1.195.69-1.75H2.524V14a8.728 8.728 0 012.27-5.878 8.819 8.819 0 0111.748-1.163 8.746 8.746 0 013.39 5.317c.63.044 1.243.15 1.834.31a10.483 10.483 0 00-1.98-4.84 10.549 10.549 0 00-4.078-3.294v-.077c0-1.16-.463-2.273-1.287-3.093A4.405 4.405 0 0011.312 0zm0 3.5c-.89 0-1.753.11-2.577.315a2.623 2.623 0 01.922-1.487 2.644 2.644 0 013.31 0c.47.376.795.901.922 1.487a10.691 10.691 0 00-2.577-.315z" fill="#222"/><path d="M13.662 14a9.651 9.651 0 012.716-1.326c.134-.29.208-.611.208-.949 0-.789-.315-1.546-.876-2.104a2.996 2.996 0 00-2.113-.87h-4.57c-.793 0-1.553.313-2.113.87a2.968 2.968 0 00-.876 2.104 2.266 2.266 0 00.67 1.609A2.286 2.286 0 008.323 14h5.34zm-5.866-2.275c0-.325.13-.636.36-.866.231-.23.544-.359.87-.359h4.571c.327 0 .64.13.87.359.231.23.36.541.36.866a.524.524 0 01-.527.525H8.323a.528.528 0 01-.527-.525z" fill="#222"/></svg><svg fill="none" viewBox="0 0 24 24" id="report" xmlns="http://www.w3.org/2000/svg"><g clip-path="url(#pclip0)" stroke="#ACAFF3" stroke-width="1.5" stroke-linecap="round" stroke-linejoin="round"><path d="M9 6.75H7.75a2 2 0 00-2 2v8.5a2 2 0 002 2h8.5a2 2 0 002-2v-8.5a2 2 0 00-2-2H15"/><path d="M14 8.25h-4a1 1 0 01-1-1v-1.5a1 1 0 011-1h4a1 1 0 011 1v1.5a1 1 0 01-1 1zM9.75 12.25h4.5M9.75 15.25h4.5"/></g><defs><clipPath id="pclip0"><path fill="#fff" d="M0 0h24v24H0z"/></clipPath></defs></svg><svg fill="none" viewBox="0 0 12 13" id="sort" xmlns="http://www.w3.org/2000/svg"><path d="M5.654 2.1a.4.4 0 01.693 0l1.905 3.3a.4.4 0 01-.347.6h-3.81a.4.4 0 01-.347-.6l1.906-3.3z" fill="#909090"/><path d="M6.346 10.9a.4.4 0 01-.692 0L3.748 7.6a.4.4 0 01.347-.6h3.81a.4.4 0 01.347.6l-1.906 3.3z" fill="#5A60E7"/></svg><svg fill="none" viewBox="0 0 26 26" id="telega" xmlns="http://www.w3.org/2000/svg"><path fill-rule="evenodd" clip-rule="evenodd" d="M25.5 13c0 6.903-5.597 12.5-12.5 12.5S.5 19.903.5 13 6.097.5 13 .5 25.5 6.097 25.5 13zM13.448 9.728c-1.216.505-3.646 1.552-7.29 3.14-.591.235-.902.465-.93.69-.048.382.43.532 1.077.735.089.028.18.056.274.087.639.207 1.497.45 1.943.46.405.008.857-.159 1.356-.5 3.404-2.3 5.162-3.46 5.272-3.486.078-.018.186-.04.26.025.072.065.065.188.058.221-.048.201-1.917 1.94-2.886 2.84a29.3 29.3 0 00-.56.525c-.097.1-.197.197-.293.29-.594.571-1.037 1 .025 1.7.51.337.919.615 1.326.892.445.303.889.605 1.464.982.146.096.285.195.422.292.517.37.983.7 1.558.649.333-.032.68-.345.854-1.282.414-2.214 1.228-7.01 1.417-8.987.011-.164.004-.329-.021-.492a.527.527 0 00-.18-.338c-.148-.122-.38-.148-.484-.146-.47.008-1.19.26-4.662 1.703z" fill="#fff"/></svg><svg fill="none" viewBox="0 0 24 24" id="user" xmlns="http://www.w3.org/2000/svg"><path d="M12 11.25a3.25 3.25 0 100-6.5 3.25 3.25 0 000 6.5zM6.848 19.25h10.305c1.142 0 2.021-.982 1.488-1.992-.784-1.485-2.573-3.258-6.64-3.258-4.069 0-5.857 1.773-6.642 3.258-.533 1.01.347 1.992 1.489 1.992z" stroke="#ACAFF3" stroke-width="1.5" stroke-linecap="round" stroke-linejoin="round"/></svg><svg viewBox="0 0 26 26" id="vk" xmlns="http://www.w3.org/2000/svg"><path d="M13 .5C6.096.5.5 6.096.5 13S6.096 25.5 13 25.5 25.5 19.904 25.5 13 19.904.5 13 .5zm4.807 14.103s1.106 1.091 1.378 1.598c.008.01.012.02.014.026.11.186.137.33.082.438-.09.18-.403.269-.51.276h-1.953c-.136 0-.42-.035-.763-.272-.265-.185-.525-.488-.779-.784-.379-.44-.707-.82-1.038-.82a.396.396 0 00-.123.02c-.25.08-.57.437-.57 1.388 0 .297-.235.467-.4.467h-.895c-.305 0-1.892-.107-3.298-1.59C7.23 13.534 5.68 9.89 5.668 9.857c-.098-.236.104-.362.324-.362h1.973c.263 0 .349.16.409.302.07.165.328.823.751 1.562.686 1.206 1.107 1.696 1.444 1.696a.39.39 0 00.181-.047c.44-.245.358-1.814.338-2.14 0-.06 0-.701-.226-1.009-.162-.222-.436-.307-.603-.338a.716.716 0 01.26-.22c.301-.151.846-.173 1.386-.173h.3c.587.007.738.045.95.099.43.102.439.38.401 1.329-.012.27-.023.574-.023.934 0 .078-.004.161-.004.25-.013.483-.029 1.03.312 1.256a.282.282 0 00.149.043c.118 0 .475 0 1.441-1.657a12.64 12.64 0 00.775-1.66c.02-.033.077-.137.144-.178a.346.346 0 01.162-.037h2.319c.252 0 .425.037.458.135.057.155-.01.628-1.069 2.061l-.473.624c-.96 1.258-.96 1.321.06 2.276z"/></svg><svg fill="none" viewBox="0 0 26 26" id="whatssap" xmlns="http://www.w3.org/2000/svg"><path fill-rule="evenodd" clip-rule="evenodd" d="M13.167 25.667c6.903 0 12.5-5.597 12.5-12.5 0-6.904-5.597-12.5-12.5-12.5-6.904 0-12.5 5.596-12.5 12.5 0 6.903 5.596 12.5 12.5 12.5zM16.059 6.23c.907.374 1.73.924 2.422 1.617a7.388 7.388 0 012.186 5.258c-.002 4.098-3.353 7.433-7.469 7.433h-.003a7.499 7.499 0 01-3.57-.905l-3.958 1.034 1.059-3.851a7.405 7.405 0 01-.997-3.716C5.731 9 9.082 5.667 13.2 5.667a7.45 7.45 0 012.86.563zm-2.863 13.053h.002c3.421 0 6.206-2.772 6.207-6.178a6.116 6.116 0 00-1.816-4.371 6.17 6.17 0 00-4.388-1.812c-3.425 0-6.21 2.771-6.21 6.178a6.145 6.145 0 00.949 3.288l.147.233-.627 2.28 2.35-.614.226.134a6.218 6.218 0 003.16.862zm2.132-5.232c.171.062 1.088.51 1.275.604l.102.05c.13.063.219.105.256.168.047.078.047.45-.109.884-.155.434-.9.83-1.26.882a2.575 2.575 0 01-1.175-.073c-.27-.086-.618-.2-1.064-.392-1.751-.753-2.934-2.443-3.156-2.76l-.032-.044-.002-.004c-.102-.135-.76-1.012-.76-1.918 0-.856.422-1.303.616-1.51l.037-.04a.687.687 0 01.498-.231 8.06 8.06 0 01.398.007c.11-.001.245-.003.379.317l.209.505c.16.387.335.812.366.874.048.093.079.201.016.325l-.027.054c-.046.095-.08.164-.16.256l-.095.114c-.064.078-.128.156-.184.211-.094.093-.191.193-.082.38a5.6 5.6 0 001.038 1.286c.597.53 1.115.754 1.378.867.051.022.093.04.123.055.186.093.295.078.404-.046.11-.125.467-.543.592-.728.124-.186.248-.155.419-.093z" fill="#fff"/></svg><svg fill="none" viewBox="0 0 26 26" id="youtube" xmlns="http://www.w3.org/2000/svg"><path d="M15.594 13l-4.245 2.594v-5.188L15.594 13z" fill="#fff"/><path fill-rule="evenodd" clip-rule="evenodd" d="M.5 13C.5 6.098 6.098.5 13 .5S25.5 6.098 25.5 13 19.902 25.5 13 25.5.5 19.902.5 13zm19.989 3.77c.322-1.222.322-3.757.322-3.757s.013-2.548-.322-3.77a1.957 1.957 0 00-1.377-1.377C17.89 7.53 13 7.53 13 7.53s-4.89 0-6.112.322c-.656.18-1.197.72-1.377 1.39C5.189 10.465 5.189 13 5.189 13s0 2.548.322 3.757c.18.67.708 1.197 1.377 1.377 1.235.335 6.112.335 6.112.335s4.89 0 6.112-.322a1.957 1.957 0 001.377-1.377z" fill="#fff"/></svg></svg>